<?xml version="1.0" encoding="iso-8859-1"?>
<!-- Uploaded to: SVG Repo, www.svgrepo.com, Generator: SVG Repo Mixer Tools -->
<svg version="1.1" id="Layer_1" xmlns="http://www.w3.org/2000/svg" xmlns:xlink="http://www.w3.org/1999/xlink" 
	 viewBox="0 0 512 512" xml:space="preserve">
<path style="fill:#FFFFFF;" d="M372.809,508H94.315c-15.735-0.04-28.477-12.783-28.517-28.517V32.517
	C65.838,16.782,78.581,4.04,94.315,4h323.378c15.735,0.04,28.477,12.783,28.517,28.517v402.306"/>
<g>
	<path style="fill:#CCCCCC;" d="M372.809,512H94.315c-17.95-0.024-32.493-14.575-32.517-32.525V32.517
		C61.822,14.567,76.365,0.024,94.315,0h323.378c17.95,0.024,32.485,14.567,32.509,32.517v402.298h-7.999V32.517
		C442.179,18.99,431.22,8.023,417.685,7.999H94.315C80.78,8.015,69.813,18.982,69.797,32.517v446.958
		c0.016,13.535,10.983,24.502,24.518,24.518h278.502V512H372.809z"/>
	<path style="fill:#CCCCCC;" d="M372.809,450.246v61.706l77.129-77.129h-61.682C379.744,434.839,372.841,441.727,372.809,450.246z"
		/>
</g>
<path d="M256.412,338.04H218.56l-11.471,21.118H186.89l54.019-95.519h21.83l15.503,95.519h-18.638L256.412,338.04z M254.012,322.146
	l-5.535-38.444l-23.078,38.436L254.012,322.146z"/>
<path d="M289.369,359.15l19.998-95.519h19.614l-19.918,95.519L289.369,359.15L289.369,359.15z"/>
<rect x="105.81" y="107.342" style="fill:#E21B1B;" width="76.033" height="76.033"/>
<rect x="181.843" y="107.342" style="fill:#F91E1E;" width="76.033" height="76.033"/>
<rect x="257.892" y="107.342" style="fill:#999999;" width="76.033" height="76.033"/>
<rect x="333.909" y="107.342" style="fill:#CCCCCC;" width="76.033" height="76.033"/>
</svg>